<svg xmlns="http://www.w3.org/2000/svg"
 xmlns:xlink="http://www.w3.org/1999/xlink"
 width="11px" height="7px"  viewBox="0 0 11 7">
<path fill-rule="evenodd"  fill="#f3f3f3"
 d="M5.1547546,5.8556595 C5.1547546,5.8556595 2.1450195,2.8363419 2.1450195,2.8363419 C1.9535217,2.6446915 1.9535217,2.3330536 2.1450195,2.1414032 C2.3363953,1.9493484 2.6467896,1.9493484 2.8381653,2.1414032 C2.8381653,2.1414032 5.5013123,4.8124466 5.5013123,4.8124466 C5.5013123,4.8124466 8.164368,2.1414032 8.164368,2.1414032 C8.3558655,1.9493484 8.666138,1.9493484 8.857544,2.1414032 C9.049011,2.333458 9.049011,2.6446915 8.857544,2.8367462 C8.857544,2.8367462 5.847809,5.856064 5.847809,5.856064 C5.7521057,5.951889 5.626709,5.9993973 5.5013123,5.9993973 C5.375824,5.9993973 5.2503357,5.9514847 5.1547546,5.8556595 Z"/>
</svg>