<svg xmlns="http://www.w3.org/2000/svg"
 xmlns:xlink="http://www.w3.org/1999/xlink"
 width="7px" height="11px"  viewBox="0 0 7 11">
<path fill-rule="evenodd"  fill="#000000"
 d="M5.855591,5.876419 C5.855591,5.876419 2.836319,8.886063 2.836319,8.886063 C2.644638,9.077728 2.3329773,9.077728 2.141388,8.886063 C1.9493256,8.694824 1.9493256,8.384399 2.141388,8.192749 C2.141388,8.192749 4.8124237,5.5297546 4.8124237,5.5297546 C4.8124237,5.5297546 2.141388,2.8667603 2.141388,2.8667603 C1.9493256,2.6751099 1.9493256,2.364685 2.141388,2.1734314 C2.333374,1.981781 2.644638,1.981781 2.8367157,2.1734314 C2.8367157,2.1734314 5.8559875,5.18309 5.8559875,5.18309 C5.951874,5.2789154 5.9993744,5.404129 5.9993744,5.5297546 C5.9993744,5.655365 5.951477,5.780594 5.855591,5.876419 Z"/>
</svg>