<svg width="161" height="139" viewBox="0 0 161 139" fill="none" xmlns="http://www.w3.org/2000/svg">
<path d="M33.0062 75.682V80.0529H30.3502C30.1132 79.1467 29.8204 78.4356 29.4718 77.9198C29.1233 77.3899 28.719 77.0205 28.2589 76.8113C27.7988 76.6022 27.2271 76.4976 26.5439 76.4976C25.568 76.4976 24.7035 76.8113 23.9507 77.4387C23.1978 78.0662 22.5982 79.0212 22.1521 80.3039C21.7199 81.5866 21.5038 83.1551 21.5038 85.0095C21.5038 86.1946 21.5874 87.2821 21.7547 88.272C21.922 89.248 22.2079 90.0845 22.6122 90.7816C23.0165 91.4787 23.5533 92.0225 24.2225 92.4129C24.8918 92.8033 25.7213 92.9985 26.7113 92.9985C27.6733 92.9985 28.5656 92.8102 29.3882 92.4338C30.2247 92.0574 31.0892 91.3951 31.9815 90.447L33.1736 91.8273C32.4625 92.6081 31.8351 93.2146 31.2913 93.6468C30.7476 94.0651 30.162 94.4206 29.5346 94.7134C28.9211 94.9922 28.3077 95.1944 27.6942 95.3199C27.0947 95.4593 26.4394 95.529 25.7283 95.529C23.0932 95.529 21.0785 94.6576 19.6843 92.9148C18.29 91.1581 17.5929 88.6275 17.5929 85.3232C17.5929 83.2597 17.9833 81.4332 18.7641 79.8438C19.5449 78.2404 20.6393 77.0065 22.0475 76.1421C23.4557 75.2777 25.08 74.8455 26.9204 74.8455C28.0637 74.8455 29.1163 74.9152 30.0783 75.0546C31.0543 75.1801 32.0303 75.3892 33.0062 75.682ZM52.1012 80.9941C51.6829 79.5719 51.2089 78.5332 50.6791 77.8779C50.1493 77.2226 49.3197 76.895 48.1904 76.895H46.1199V89.9869C46.1199 91.6321 46.2942 92.6917 46.6428 93.1658C47.0053 93.6398 47.7303 93.9744 48.8178 94.1696V95.1944H39.8458V94.1696C40.9891 93.9605 41.7211 93.598 42.0418 93.0821C42.3764 92.5523 42.5437 91.5206 42.5437 89.9869V76.895H40.4942C39.323 76.895 38.4725 77.2645 37.9427 78.0034C37.4129 78.7284 36.9737 79.7253 36.6251 80.9941H34.6383V75.201H54.0671V80.9941H52.1012ZM65.8841 96.9093C65.1173 98.6382 64.3714 100.039 63.6464 101.113C62.9214 102.187 62.1197 102.995 61.2413 103.539C60.3769 104.083 59.3451 104.355 58.1461 104.355C57.3792 104.355 56.5148 104.264 55.5528 104.083V99.9418H57.4141C57.5814 100.513 57.7905 100.911 58.0415 101.134C58.2925 101.357 58.655 101.468 59.129 101.468C59.5473 101.468 59.9168 101.385 60.2374 101.218C60.5721 101.064 60.9136 100.792 61.2622 100.402C61.6247 100.011 62.043 99.412 62.517 98.6033C63.005 97.7947 63.5488 96.7699 64.1483 95.529L58.2925 79.7811C57.916 78.7633 57.6093 78.0522 57.3723 77.6479C57.1492 77.2435 56.9052 76.9368 56.6403 76.7277C56.3754 76.5185 55.9711 76.3512 55.4273 76.2258V75.201H63.9391V76.2258C63.2839 76.3791 62.8238 76.5325 62.5588 76.6859C62.2939 76.8253 62.0988 77.0135 61.9733 77.2505C61.8478 77.4736 61.785 77.7664 61.785 78.1289C61.785 78.5053 61.8269 78.8957 61.9105 79.3001C62.0081 79.7044 62.1545 80.1784 62.3497 80.7222L66.0723 91.1999L70.2551 81.1614C70.4921 80.6037 70.6733 80.0948 70.7988 79.6347C70.9382 79.1606 71.0079 78.7214 71.0079 78.3171C71.0079 77.7176 70.8406 77.2645 70.506 76.9577C70.1853 76.651 69.6207 76.407 68.812 76.2258V75.201H76.6337V76.2258C76.09 76.3373 75.6717 76.5116 75.3789 76.7486C75.0861 76.9717 74.7933 77.3342 74.5005 77.8361C74.2077 78.3241 73.8592 79.0142 73.4548 79.9065L65.8841 96.9093ZM93.8464 101.949C93.5397 99.9976 93.226 98.5615 92.9053 97.6413C92.5986 96.7211 92.2082 96.0797 91.7342 95.7172C91.2601 95.3687 90.4445 95.1944 89.2873 95.1944H80.3572C79.1721 95.1944 78.2519 95.6196 77.5966 96.4701C76.9552 97.3346 76.4533 99.175 76.0908 101.991H74.1667V93.3958H76.6136C78.0915 91.3184 79.2487 88.9412 80.0853 86.2643C80.9218 83.5734 81.3401 81.1056 81.3401 78.8609C81.3401 77.2854 80.7127 76.407 79.4579 76.2258V75.201H94.9549V76.2258C94.0347 76.407 93.4142 76.7416 93.0936 77.2296C92.7729 77.7036 92.6125 78.5611 92.6125 79.802V93.3958H95.8123V101.949H93.8464ZM89.0363 76.895H84.017C83.4175 84.0196 81.842 89.5198 79.2906 93.3958H89.0363V76.895ZM111.54 95.1944V94.1696C112.363 93.9466 112.927 93.6259 113.234 93.2076C113.555 92.7893 113.715 91.904 113.715 90.5516V81.726L104.492 91.2417C104.506 92.1898 104.66 92.859 104.952 93.2494C105.245 93.6259 105.817 93.9326 106.667 94.1696V95.1944H98.6783V94.1696C99.5846 93.9187 100.184 93.5701 100.477 93.1239C100.784 92.6639 100.937 91.8064 100.937 90.5516V79.802C100.937 78.5332 100.777 77.6688 100.456 77.2087C100.149 76.7347 99.5567 76.407 98.6783 76.2258V75.201H106.667V76.2258C105.817 76.407 105.231 76.7277 104.911 77.1878C104.604 77.6479 104.45 78.5193 104.45 79.802V88.4811L113.632 78.9445C113.618 77.3551 112.893 76.4488 111.457 76.2258V75.201H119.446V76.2258C118.595 76.407 118.009 76.7277 117.689 77.1878C117.368 77.6339 117.208 78.5053 117.208 79.802V90.5516C117.208 91.8203 117.361 92.6848 117.668 93.1449C117.975 93.591 118.567 93.9326 119.446 94.1696V95.1944H111.54ZM133.375 95.1944V94.1696C134.183 93.9326 134.741 93.598 135.048 93.1658C135.355 92.7336 135.508 91.6739 135.508 89.9869V86.4107H134.023C132.713 86.4107 131.702 86.6407 130.991 87.1008C130.294 87.547 129.757 88.2581 129.38 89.234L127.435 94.1696V95.1944H121.35V94.1696C122.312 94.0163 123.009 93.7165 123.441 93.2703C123.873 92.8102 124.305 92.1619 124.738 91.3254L125.595 89.7569C126.501 88.0977 127.617 86.9684 128.941 86.3689V86.2015C125.33 85.4765 123.525 83.6571 123.525 80.7431C123.525 78.8888 124.25 77.5015 125.7 76.5813C127.15 75.6611 129.596 75.201 133.04 75.201H141.28V76.2258C140.416 76.407 139.83 76.7347 139.523 77.2087C139.231 77.6827 139.084 78.5472 139.084 79.802V89.9869C139.084 91.5903 139.203 92.6151 139.44 93.0612C139.691 93.4934 140.318 93.8629 141.322 94.1696V95.1944H133.375ZM135.508 76.895C134.546 76.8392 133.577 76.8113 132.601 76.8113C129.101 76.8113 127.352 78.1777 127.352 80.9104C127.352 82.0537 127.679 82.9948 128.335 83.7337C129.004 84.4587 130.558 84.8212 132.998 84.8212H135.508V76.895Z" fill="black"/>
<path fill-rule="evenodd" clip-rule="evenodd" d="M6.75963 133.558V129.145C7.45675 129.438 8.22358 129.668 9.06013 129.835C9.89667 130.017 10.8308 130.107 11.8626 130.107C13.7029 130.107 15.2854 129.717 16.6099 128.936C17.9484 128.141 18.9662 126.963 19.6633 125.402C20.3604 123.826 20.709 121.888 20.709 119.588C20.709 116.269 20.0886 113.753 18.8477 112.038C17.6208 110.309 15.8571 109.445 13.5566 109.445C12.9989 109.445 12.469 109.5 11.9671 109.612C11.4791 109.723 10.9633 109.912 10.4195 110.177C9.8897 110.441 9.37383 110.776 8.87191 111.18C8.36998 111.571 7.6868 112.205 6.82237 113.084L6.50867 113L6.78054 109.591H5.50481L0.590118 109.779V110.888C1.21752 111.013 1.66368 111.139 1.92859 111.264C2.20744 111.39 2.42354 111.543 2.57691 111.724C2.74422 111.905 2.8697 112.135 2.95335 112.414C3.03701 112.693 3.09278 113.049 3.12066 113.481C3.14855 113.899 3.16249 114.61 3.16249 115.614V133.558C3.16249 134.367 3.13461 135.015 3.07884 135.503C3.02307 135.991 2.91153 136.374 2.74422 136.653C2.57691 136.946 2.33292 137.162 2.01224 137.302C1.70551 137.455 1.30118 137.601 0.799253 137.741V138.765H9.332V137.741C8.66277 137.601 8.17479 137.448 7.86805 137.281C7.57526 137.113 7.34521 136.897 7.1779 136.632C7.02454 136.381 6.913 136.033 6.84329 135.587C6.78752 135.14 6.75963 134.464 6.75963 133.558ZM7.01059 125.339C6.84329 124.614 6.75963 123.582 6.75963 122.244V116.723C6.75963 116.137 6.87117 115.593 7.09425 115.091C7.33127 114.575 7.72863 114.046 8.28632 113.502C8.84402 112.958 9.40172 112.568 9.95941 112.331C10.5311 112.08 11.2073 111.954 11.988 111.954C15.1808 111.954 16.7773 114.687 16.7773 120.152C16.7773 122.885 16.352 124.956 15.5015 126.364C14.651 127.758 13.3823 128.455 11.6952 128.455C10.7472 128.455 9.98033 128.344 9.39475 128.12C8.82311 127.897 8.32118 127.563 7.88897 127.117C7.47069 126.656 7.1779 126.064 7.01059 125.339ZM37.4625 128.413C38.2154 127.883 39.038 127.151 39.9303 126.217L38.6546 124.858C37.7483 125.82 36.8351 126.517 35.9149 126.949C35.0086 127.368 33.9838 127.577 32.8406 127.577C31.4882 127.577 30.3867 127.263 29.5362 126.636C28.6997 125.994 28.0932 125.116 27.7167 124C27.3542 122.871 27.173 121.484 27.173 119.839V119.462H40.3486C40.3067 117.566 40.1185 116.032 39.7839 114.861C39.4632 113.676 39.0031 112.7 38.4036 111.933C37.818 111.153 37.0303 110.539 36.0404 110.093C35.0504 109.647 33.8514 109.424 32.4432 109.424C30.6446 109.424 29.0552 109.856 27.6749 110.72C26.2946 111.585 25.228 112.812 24.4751 114.401C23.7362 115.991 23.3667 117.824 23.3667 119.901C23.3667 123.262 24.0987 125.806 25.5626 127.535C27.0266 129.25 29.1946 130.107 32.0668 130.107C33.1403 130.107 34.1233 129.961 35.0156 129.668C35.9079 129.361 36.7235 128.943 37.4625 128.413ZM35.8521 114.046C36.1449 114.994 36.3331 116.221 36.4168 117.726H27.2776C27.4309 115.593 27.9328 113.955 28.7833 112.812C29.6478 111.654 30.798 111.076 32.2341 111.076C33.1822 111.076 33.949 111.334 34.5346 111.85C35.1202 112.352 35.5593 113.084 35.8521 114.046ZM56.4119 128.748V129.773H62.7487V128.748C61.8982 128.608 61.2429 128.344 60.7828 127.953C60.3367 127.549 59.8626 126.859 59.3607 125.883L57.7713 122.787C56.8092 120.919 55.3244 119.734 53.3167 119.232V119.107C54.2648 118.661 55.2268 117.336 56.2027 115.133C56.7186 113.976 57.1578 113.237 57.5203 112.916C57.8828 112.596 58.3568 112.435 58.9424 112.435C59.6953 112.435 60.1624 112.874 60.3436 113.753H62.2259V109.675C61.459 109.479 60.7759 109.382 60.1763 109.382C58.3638 109.382 57.0672 109.779 56.2864 110.574C55.5056 111.369 54.7597 112.644 54.0486 114.401C53.3515 116.158 52.7241 117.315 52.1664 117.873C51.6227 118.417 50.8977 118.688 49.9914 118.688H48.4856V114.359C48.4856 113.091 48.6529 112.226 48.9876 111.766C49.3222 111.306 49.9147 110.985 50.7652 110.804V109.779H42.6089V110.804C43.5291 110.985 44.1356 111.32 44.4284 111.808C44.7351 112.282 44.8885 113.132 44.8885 114.359V124.544C44.8885 126.092 44.763 127.117 44.512 127.619C44.2611 128.106 43.6616 128.483 42.7135 128.748V129.773H50.7652V128.748C49.859 128.483 49.2525 128.162 48.9457 127.786C48.639 127.409 48.4856 126.329 48.4856 124.544V120.257H49.9914C50.9255 120.257 51.7133 120.431 52.3546 120.78C52.996 121.128 53.5885 121.958 54.1323 123.268L56.4119 128.748ZM76.0933 128.748V129.773H84.1241V128.748C83.2039 128.497 82.6044 128.141 82.3255 127.681C82.0467 127.207 81.9072 126.357 81.9072 125.13V114.38C81.9072 113.139 82.0536 112.282 82.3464 111.808C82.6532 111.32 83.2457 110.985 84.1241 110.804V109.779H69.129V110.804C70.4257 110.985 71.074 111.905 71.074 113.565C71.074 115.572 70.6139 118.319 69.6937 121.805C68.7735 125.29 67.686 127.033 66.4312 127.033C65.6504 127.033 65.2182 126.454 65.1345 125.297H63.2941V129.773C64.0052 129.996 64.9045 130.107 65.992 130.107C67.191 130.107 68.2437 129.689 69.1499 128.852C70.0562 128.016 70.9485 126.092 71.8269 123.08C72.7053 120.069 73.3745 116.2 73.8346 111.473H78.2892V125.13C78.2892 126.371 78.1428 127.228 77.85 127.702C77.5712 128.162 76.9856 128.511 76.0933 128.748ZM98.5771 126.698L98.8908 126.782L98.7862 129.773H104.517V128.748C103.903 128.581 103.457 128.42 103.178 128.267C102.913 128.113 102.711 127.932 102.572 127.723C102.432 127.5 102.328 127.207 102.258 126.845C102.188 126.482 102.146 126.092 102.132 125.674C102.118 125.241 102.111 124.509 102.111 123.478V116.2C102.111 114.373 101.902 113.007 101.484 112.101C101.066 111.194 100.438 110.525 99.6018 110.093C98.7653 109.647 97.6569 109.424 96.2766 109.424C95.3564 109.424 94.4501 109.521 93.5578 109.716C92.6655 109.898 91.7732 110.156 90.8809 110.49C89.9885 110.811 88.8731 111.32 87.5347 112.017V114.736H90.2744C90.609 113.592 91.1039 112.735 91.7592 112.163C92.4285 111.592 93.3068 111.306 94.3943 111.306C95.3982 111.306 96.1999 111.501 96.7994 111.891C97.3989 112.282 97.8381 112.895 98.117 113.732C98.3958 114.568 98.5352 115.712 98.5352 117.162V118.521C94.5059 118.702 91.4804 119.351 89.4587 120.466C87.451 121.567 86.4472 123.136 86.4472 125.172C86.4472 126.148 86.6633 127.012 87.0955 127.765C87.5277 128.504 88.1481 129.082 88.9568 129.501C89.7655 129.905 90.6996 130.107 91.7592 130.107C92.9583 130.107 94.0876 129.849 95.1472 129.333C96.2208 128.818 97.3641 127.939 98.5771 126.698ZM92.1775 121.365C93.5857 120.64 95.7049 120.264 98.5352 120.236V123.185C98.5352 123.882 98.3191 124.586 97.8869 125.297C97.4547 126.008 96.8482 126.594 96.0674 127.054C95.3006 127.514 94.4431 127.744 93.4951 127.744C92.8258 127.744 92.2472 127.66 91.7592 127.493C91.2712 127.312 90.8669 126.991 90.5462 126.531C90.2256 126.071 90.0652 125.443 90.0652 124.649C90.0652 123.185 90.7693 122.09 92.1775 121.365ZM122.546 128.748V129.773H130.493V128.748C129.615 128.539 129.015 128.204 128.694 127.744C128.388 127.284 128.234 126.412 128.234 125.13V114.38C128.234 113.167 128.388 112.317 128.694 111.829C129.001 111.327 129.601 110.985 130.493 110.804V109.779H123.947L118.279 122.641L113.072 109.779H106.149V110.804C106.944 110.971 107.509 111.264 107.843 111.682C108.192 112.101 108.366 113 108.366 114.38V125.13C108.366 126.357 108.227 127.207 107.948 127.681C107.669 128.141 107.07 128.497 106.149 128.748V129.773H113.03V128.748C112.11 128.497 111.51 128.141 111.231 127.681C110.953 127.207 110.813 126.357 110.813 125.13V116.011C110.813 114.812 110.771 113.697 110.688 112.665H110.897L116.606 126.468H118.614L124.679 113H124.909C124.811 113.795 124.763 115.084 124.763 116.869V125.13C124.763 126.357 124.623 127.207 124.344 127.681C124.065 128.141 123.466 128.497 122.546 128.748ZM152.684 128.748V129.773H160.757V128.748C159.836 128.497 159.237 128.141 158.958 127.681C158.679 127.207 158.54 126.357 158.54 125.13V114.38C158.54 113.139 158.686 112.282 158.979 111.808C159.286 111.32 159.878 110.985 160.757 110.804V109.779H152.684V110.804C153.52 110.971 154.106 111.285 154.441 111.745C154.789 112.191 154.964 113.07 154.964 114.38V125.13C154.964 126.468 154.789 127.354 154.441 127.786C154.106 128.204 153.52 128.525 152.684 128.748ZM133.297 128.748V129.773H142.478C145.657 129.773 147.888 129.278 149.17 128.288C150.467 127.284 151.115 125.799 151.115 123.833C151.115 119.943 148.62 117.998 143.628 117.998C142.304 117.998 140.812 118.096 139.153 118.291V114.38C139.153 113.181 139.306 112.331 139.613 111.829C139.92 111.327 140.547 110.985 141.495 110.804V109.779H133.297V110.804C134.175 110.985 134.768 111.313 135.075 111.787C135.395 112.247 135.556 113.111 135.556 114.38V125.13C135.556 126.385 135.402 127.242 135.096 127.702C134.803 128.148 134.203 128.497 133.297 128.748ZM139.153 128.016V119.901C140.185 119.734 141.279 119.65 142.436 119.65C145.685 119.65 147.309 121.031 147.309 123.791C147.309 125.269 146.933 126.357 146.18 127.054C145.441 127.751 143.977 128.1 141.788 128.1C140.826 128.1 139.948 128.072 139.153 128.016Z" fill="url(#paint0_linear)"/>
<path d="M95.226 63.0974C100.941 62.019 114.475 58.4711 122.887 52.9065C121.539 57.3819 114.12 65.6856 95.226 63.0974Z" fill="url(#paint1_linear)"/>
<path d="M57.859 63.0974C52.1434 62.019 38.6095 58.4711 30.1978 52.9065C31.5458 57.3819 38.9652 65.6856 57.859 63.0974Z" fill="url(#paint2_linear)"/>
<path d="M98.1377 48.5389L87.2995 15.5396C89.2406 19.8101 90.9122 19.9071 91.5054 19.4219L129.519 7.45152C127.19 14.4396 123.588 17.5886 122.078 18.2895L93.9318 27.9952L95.0642 30.0981L124.828 20.2307C124.052 25.1482 120.838 28.2109 119.328 29.1276L96.0347 36.8921L97.3288 39.1568L119.328 31.7157C118.423 35.3392 115.824 37.3235 114.637 37.8627L98.1377 44.3331V48.5389Z" fill="url(#paint3_linear)"/>
<path d="M56.0796 48.5389L66.9177 15.5396C64.9767 19.8101 63.305 19.9071 62.7118 19.4219L24.6979 7.45152C27.0273 14.4396 30.6292 17.5886 32.1389 18.2895L60.2854 27.9952L59.1531 30.0981L29.389 20.2307C30.1654 25.1482 33.3791 28.2109 34.8889 29.1276L58.1825 36.8921L56.8884 39.1568L34.8889 31.7157C35.7947 35.3392 38.3937 37.3235 39.58 37.8627L56.0796 44.3331V48.5389Z" fill="url(#paint4_linear)"/>
<path d="M58.5061 50.9653C44.1416 52.2594 29.9821 47.4066 24.6979 44.8184C29.3566 53.1006 53.0601 58.4063 64.3295 60.0239L76.4616 15.5396L89.5643 60.0239C109.493 58.9887 123.75 49.4555 128.387 44.8184C120.105 50.6418 102.937 51.3428 95.3877 50.9653L76.4616 0.172226C75.4371 2.97609 70.4117 17.0601 58.5061 50.9653Z" fill="url(#paint5_linear)"/>
<defs>
<linearGradient id="paint0_linear" x1="79.1799" y1="106.302" x2="79.1799" y2="137.711" gradientUnits="userSpaceOnUse">
<stop stop-color="#FF7F4B"/>
<stop offset="1" stop-color="#FF130B"/>
</linearGradient>
<linearGradient id="paint1_linear" x1="120.946" y1="54.8476" x2="99.917" y2="63.5869" gradientUnits="userSpaceOnUse">
<stop stop-color="#161616"/>
<stop offset="1" stop-color="#343434"/>
</linearGradient>
<linearGradient id="paint2_linear" x1="32.139" y1="54.8476" x2="53.1679" y2="63.5869" gradientUnits="userSpaceOnUse">
<stop stop-color="#161616"/>
<stop offset="1" stop-color="#343434"/>
</linearGradient>
<linearGradient id="paint3_linear" x1="107.035" y1="45.3037" x2="106.226" y2="13.1132" gradientUnits="userSpaceOnUse">
<stop stop-color="#FF1C10"/>
<stop offset="1" stop-color="#FF7F4B"/>
</linearGradient>
<linearGradient id="paint4_linear" x1="47.1827" y1="45.3037" x2="47.9916" y2="13.1132" gradientUnits="userSpaceOnUse">
<stop stop-color="#FF1C10"/>
<stop offset="1" stop-color="#FF7F4B"/>
</linearGradient>
<linearGradient id="paint5_linear" x1="76.5425" y1="-2.73948" x2="76.5425" y2="60.0239" gradientUnits="userSpaceOnUse">
<stop stop-color="#FF8A51"/>
<stop offset="1" stop-color="#FF0E08"/>
</linearGradient>
</defs>
</svg>
