<svg xmlns="http://www.w3.org/2000/svg"
 xmlns:xlink="http://www.w3.org/1999/xlink"
 width="23px" height="23px"  viewBox="0 0 23 23">
<path fill-rule="evenodd"  fill="#ffffff"
 d="M11.500122,1.0 C5.70166,1.0 1.0007324,5.7006836 1.0007324,11.499512 C1.0007324,17.29834 5.70166,21.999023 11.500122,21.999023 C17.298706,21.999023 21.999634,17.29834 21.999634,11.499512 C21.999634,5.7006836 17.298706,1.0 11.500122,1.0 ZM16.82605,12.635254 C17.31543,13.113281 17.833252,13.563477 18.272522,14.090332 C18.467163,14.323242 18.650574,14.564941 18.790222,14.8359375 C18.989624,15.223145 18.809631,15.647949 18.463257,15.670898 C18.463257,15.670898 16.312256,15.669922 16.312256,15.669922 C15.756714,15.716309 15.314758,15.491699 14.941895,15.112305 C14.644409,14.80957 14.368347,14.486328 14.081848,14.17334 C13.964722,14.044922 13.84137,13.923828 13.69458,13.828613 C13.401306,13.637695 13.146545,13.696289 12.978516,14.002441 C12.807373,14.313965 12.768127,14.659668 12.751892,15.006348 C12.728516,15.513672 12.575562,15.645996 12.066589,15.669922 C10.979309,15.721191 9.947449,15.556152 8.988403,15.007324 C8.142517,14.524414 7.487671,13.841797 6.9171143,13.068848 C5.8060913,11.5625 4.9552,9.90918 4.190613,8.208496 C4.0185547,7.8251953 4.144287,7.620117 4.5670166,7.6123047 C5.269043,7.598633 5.9711304,7.600586 6.6730347,7.6118164 C6.95874,7.616699 7.147827,7.779785 7.2576294,8.049316 C7.637024,8.982422 8.102112,9.870605 8.684937,10.694336 C8.84021,10.9140625 8.998779,11.132324 9.224548,11.287598 C9.473694,11.458984 9.663696,11.401367 9.781128,11.123535 C9.856323,10.946777 9.888794,10.7578125 9.905151,10.568359 C9.960999,9.919434 9.967651,9.270508 9.870911,8.624023 C9.810791,8.219727 9.583313,7.958496 9.180115,7.882324 C8.974731,7.8432617 9.004761,7.76709 9.104675,7.6499023 C9.277954,7.4467773 9.44043,7.321289 9.764954,7.321289 C9.764954,7.321289 12.195374,7.320801 12.195374,7.320801 C12.57843,7.395996 12.664246,7.5683594 12.716309,7.9541016 C12.716309,7.9541016 12.718384,10.654785 12.718384,10.654785 C12.713928,10.804199 12.793335,11.246582 13.061401,11.344238 C13.276184,11.415039 13.41803,11.243164 13.546448,11.106934 C14.129272,10.488281 14.544556,9.758301 14.916321,9.00293 C15.080383,8.669922 15.221985,8.325195 15.359619,7.979492 C15.461792,7.724121 15.620789,7.5981445 15.909058,7.602539 C15.909058,7.602539 18.249268,7.6054688 18.249268,7.6054688 C18.318298,7.6054688 18.388306,7.6064453 18.456482,7.618164 C18.850952,7.685547 18.958923,7.8549805 18.836853,8.239746 C18.644897,8.844727 18.271667,9.348145 17.906677,9.852539 C17.51587,10.393555 17.098938,10.915039 16.71167,11.458008 C16.356323,11.95459 16.38446,12.20459 16.82605,12.635254 Z"/>
</svg>